<?xml version="1.0" encoding="iso-8859-1"?>
<!-- Generator: Adobe Illustrator 19.0.0, SVG Export Plug-In . SVG Version: 6.00 Build 0)  -->
<svg version="1.1" id="Layer_1" xmlns="http://www.w3.org/2000/svg" xmlns:xlink="http://www.w3.org/1999/xlink" x="0px" y="0px"
	 viewBox="0 0 512 512" style="enable-background:new 0 0 512 512;" xml:space="preserve">
<g>
	<g>
		<path d="M434.948,260.667l-0.01-0.01l-93.927-86.094c-10.232-9.379-22.328-15.997-35.259-20.202
			c21.457-15.514,35.582-40.585,35.582-69.027C341.333,38.281,303.052,0,256,0s-85.333,38.281-85.333,85.333
			c0,28.443,14.125,53.513,35.582,69.027c-12.931,4.204-25.027,10.823-35.259,20.202l-93.938,86.104
			C68.76,268.281,64,279.104,64,290.365c0,22.219,18.083,40.302,41.063,40.302c10.604,0,20.99-4.302,28.49-11.802l38.24-38.24
			c0.988,10.654,2.79,20.952,5.065,31.009l-0.19,0.043c0.253,1.124,0.622,2.111,0.889,3.219c0.276,1.146,0.453,2.342,0.746,3.479
			l-38.417,53.333c-14.927,19.896-15.677,47.156-1.885,67.854l36.885,55.323C182.021,505.604,193.969,512,206.938,512
			c21.167,0,38.396-17.229,38.396-38.396v-5.208c0-8.677-2.99-17.198-8.406-23.99l-29.729-37.146l16.771-12.573
			c1.642,1.145,3.335,2.046,5.016,3.005c0.697,0.398,1.368,0.875,2.072,1.242c3.467,1.807,7.004,3.155,10.577,4.186
			c1.008,0.293,2.021,0.514,3.039,0.745c3.51,0.793,7.038,1.316,10.578,1.37c0.254,0.004,0.496,0.098,0.75,0.098
			s0.496-0.094,0.75-0.098c3.54-0.053,7.069-0.577,10.579-1.37c1.018-0.23,2.029-0.452,3.036-0.743
			c3.574-1.03,7.111-2.38,10.578-4.188c0.703-0.367,1.375-0.844,2.072-1.242c1.681-0.96,3.374-1.861,5.016-3.005l16.76,12.573
			l-29.719,37.156c-5.417,6.781-8.406,15.302-8.406,23.979v5.208c0,21.167,17.229,38.396,38.49,38.396
			c12.875,0,24.823-6.396,31.948-17.104l37.313-55.969c13.542-20.302,12.802-47.073-1.719-66.448l-39-54.115
			c0.29-1.124,0.465-2.307,0.738-3.439c0.27-1.118,0.642-2.113,0.897-3.249l-0.191-0.043c2.275-10.053,4.078-20.354,5.066-31.009
			l38.24,38.24c7.5,7.5,17.885,11.802,29.25,11.802c22.219,0,40.302-18.083,40.302-40.302
			C448,279.104,443.24,268.281,434.948,260.667z M192,85.333c0-35.292,28.708-64,64-64s64,28.708,64,64c0,35.292-28.708,64-64,64
			S192,120.625,192,85.333z M194.396,390.198c-4.656,3.5-7.625,8.615-8.354,14.385c-0.729,5.781,0.865,11.469,4.5,16.01
			l29.719,37.135c2.406,3.021,3.74,6.813,3.74,10.667v5.208c0,9.406-7.656,17.063-17.156,17.063c-5.719,0-11.031-2.844-14.198-7.604
			l-36.896-55.333c-8.792-13.177-8.302-30.542,1.323-43.375l29.621-41.12c5.888,14.441,13.006,27.005,21.311,36.763L194.396,390.198
			z M276.819,376.311c-1.727,1.258-3.461,2.34-5.203,3.28c-1.574,0.84-3.156,1.616-4.759,2.207c-1.042,0.388-2.086,0.73-3.13,1.006
			c-2.161,0.565-4.341,0.922-6.533,1.01c-0.797,0.031-1.591,0.031-2.388,0c-2.191-0.089-4.37-0.445-6.531-1.01
			c-1.046-0.276-2.09-0.62-3.133-1.008c-1.602-0.59-3.18-1.365-4.753-2.203c-1.744-0.94-3.48-2.023-5.208-3.283
			c-14.057-10.164-26.335-30.048-34.18-56.311h109.997C303.154,346.263,290.876,366.147,276.819,376.311z M355.51,385.115
			c9.229,12.313,9.698,29.177,1.156,41.979l-37.323,55.979c-3.156,4.75-8.469,7.594-14.281,7.594
			c-9.406,0-17.063-7.656-17.063-17.063v-5.208c0-3.854,1.333-7.646,3.74-10.656l29.708-37.146c3.646-4.542,5.24-10.229,4.51-16.01
			c-0.729-5.771-3.698-10.885-8.365-14.385L303.992,380c8.309-9.762,15.43-22.331,21.32-36.779L355.51,385.115z M406.938,309.333
			c-4.99,0-9.875-2.021-13.406-5.552l-55.323-55.323c-3.052-3.042-7.625-3.958-11.625-2.313c-3.99,1.646-6.583,5.542-6.583,9.854
			c0,14.621-1.776,28.882-4.323,42.667H196.322C193.776,284.876,192,270.617,192,256c0-4.313-2.594-8.208-6.583-9.854
			c-4-1.667-8.583-0.729-11.625,2.313l-55.323,55.323c-3.531,3.531-8.417,5.552-14.167,5.552c-10.458,0-18.969-8.51-18.969-18.969
			c0-5.302,2.24-10.396,6.146-13.979l93.927-86.094c13.802-12.656,31.719-19.625,50.448-19.625h40.292
			c18.729,0,36.646,6.969,50.448,19.625l93.917,86.083c3.917,3.594,6.156,8.688,6.156,13.99
			C426.667,300.823,418.156,309.333,406.938,309.333z"/></g></g><g></g><g></g><g></g><g></g><g></g><g></g><g></g><g></g><g></g><g></g><g></g><g></g><g></g><g></g><g></g></svg>
