<svg height="512pt" viewBox="-39 0 512 512" width="512pt" xmlns="http://www.w3.org/2000/svg"><path d="m296.335938 271.445312c4.140624 0 7.5-3.359374 7.5-7.5v-15.4375c0-4.140624-3.359376-7.5-7.5-7.5-4.140626 0-7.5 3.359376-7.5 7.5v15.4375c0 4.140626 3.359374 7.5 7.5 7.5zm0 0"/><path d="m306.847656 279.132812h-21.023437c-4.140625 0-7.5 3.355469-7.5 7.5 0 4.140626 3.359375 7.5 7.5 7.5h21.023437c4.140625 0 7.5-3.359374 7.5-7.5 0-4.144531-3.359375-7.5-7.5-7.5zm0 0"/><path d="m137.566406 271.445312c4.144532 0 7.5-3.359374 7.5-7.5v-15.4375c0-4.140624-3.355468-7.5-7.5-7.5-4.140625 0-7.5 3.359376-7.5 7.5v15.4375c0 4.140626 3.359375 7.5 7.5 7.5zm0 0"/><path d="m148.078125 279.132812h-21.023437c-4.140626 0-7.5 3.355469-7.5 7.5 0 4.140626 3.359374 7.5 7.5 7.5h21.023437c4.144531 0 7.5-3.359374 7.5-7.5 0-4.144531-3.355469-7.5-7.5-7.5zm0 0"/><path d="m236.085938 273.832031c-3.117188-2.726562-7.855469-2.410156-10.582032.710938-2.066406 2.363281-5.183594 3.71875-8.550781 3.71875-3.371094 0-6.488281-1.355469-8.550781-3.71875-2.726563-3.121094-7.464844-3.4375-10.585938-.710938-3.117187 2.726563-3.4375 7.464844-.710937 10.582031 4.914062 5.621094 12.148437 8.847657 19.847656 8.847657 7.695313 0 14.929687-3.226563 19.84375-8.847657 2.726563-3.117187 2.40625-7.855468-.710937-10.582031zm0 0"/><path d="m49.324219 302.875c1.160156 0 2.320312-.058594 3.480469-.140625 15.703124 48.695313 54.191406 87.816406 103.40625 105.78125-13.027344 9.253906-31.03125 26.257813-40.832032 53.976563-4.582031 12.929687-6.90625 27.0625-6.90625 42.007812 0 4.140625 3.359375 7.5 7.5 7.5h201.976563c4.144531 0 7.5-3.359375 7.5-7.5 0-.191406-.007813-.378906-.019531-.566406-.058594-14.519532-2.324219-28.257813-6.71875-40.871094-.101563-.382812-.222657-.757812-.382813-1.113281-9.835937-27.398438-27.691406-44.238281-40.636719-53.433594 49.214844-17.964844 87.703125-57.085937 103.40625-105.78125 1.160156.082031 2.324219.140625 3.480469.140625 27.199219 0 49.324219-22.128906 49.324219-49.324219 0-18.59375-10.199219-35.125-26.125-43.554687 1.804687-4.375 2.667968-9.121094 2.488281-13.992188-.332031-8.941406-4.128906-17.214844-10.6875-23.300781l-5.703125-5.292969c.210938-12.007812-1.460938-51.320312-27.4375-108.441406-5.269531-11.589844-13.753906-21.25-24.539062-27.925781-6.363282-3.941407-13.398438-7.632813-20.917969-10.980469-30.019531-13.3125-65.019531-20.0625-104.027344-20.0625-11.503906 0-22.867187.613281-33.785156 1.820312-4.117188.453126-7.085938 4.160157-6.628907 8.277344.453126 4.117188 4.167969 7.085938 8.277344 6.628906 10.371094-1.144531 21.183594-1.726562 32.136719-1.726562 35.550781 0 67.441406 5.863281 94.851563 17.433594 2.871093 9.4375 11.230468 39.214844 13.863281 74.105468.082031 1.121094.160156 2.25.234375 3.386719-.453125-.257812-.917969-.496093-1.375-.746093-6.332032-3.460938-24.992188-10.734376-27.617188-11.566407-.019531-.007812-.046875-.015625-.066406-.019531-15.085938-4.527344-30.035156-9.324219-45.601562-11.953125-.097657-.015625-.195313-.035156-.292969-.050781-22.53125-3.738282-45.464844-3.738282-67.996094 0-.070313.011718-.144531.023437-.21875.039062-15.601563 2.597656-30.53125 7.53125-45.671875 11.964844-9.679688 2.902344-18.625 7.050781-27.632812 11.554688-.476563.261718-.953126.511718-1.425782.777343.003906-.085937.011719-.164062.015625-.25.710938-10.953125 2.023438-21.867187 3.824219-32.695312 2.792969-14.902344 5.808594-29.875 10.234375-44.472657.007813-.023437.015625-.046874.023437-.070312 10.773438-4.539062 22.457032-8.253906 34.78125-11.050781 4.039063-.917969 6.570313-4.9375 5.652344-8.976563-.917968-4.039062-4.933594-6.570312-8.972656-5.652344-14.460938 3.28125-28.132812 7.757813-40.648438 13.308594-7.511718 3.34375-14.546874 7.035156-20.90625 10.972656-10.785156 6.679688-19.273437 16.335938-24.542968 27.925782-16.03125 35.257812-22.597656 63.636718-25.277344 81.238281-1.371094 8.988281-2.285156 18.109375-2.164062 27.210937l-5.699219 5.289063c-6.558594 6.085937-10.351563 14.359375-10.6875 23.300781-.179688 4.871094.683593 9.617188 2.488281 13.996094-15.925781 8.429688-26.125 24.957031-26.125 43.550781 0 27.195313 22.128906 49.324219 49.324219 49.324219zm192.472656 114.605469c-2.625 11.285156-12.769531 19.722656-24.84375 19.722656s-22.21875-8.4375-24.84375-19.722656c.347656.046875.699219.078125 1.046875.125 15.777344 2.113281 31.816406 2.121093 47.597656 0 .34375-.046875.695313-.078125 1.042969-.125zm-113.894531 55.003906h22.75v24.515625h-26.957032c.515626-8.582031 1.921876-16.789062 4.207032-24.515625zm155.347656 24.515625v-24.515625h22.753906c2.28125 7.730469 3.6875 15.933594 4.203125 24.515625zm16.941406-39.515625h-24.441406c-4.144531 0-7.5 3.359375-7.5 7.5v32.015625h-102.59375v-32.015625c0-4.140625-3.359375-7.5-7.5-7.5h-24.445312c13.027343-26.734375 34.898437-39.65625 41.703124-43.164063.382813.089844.765626.167969 1.148438.257813 1.484375 20.992187 19.027344 37.625 40.390625 37.625s38.90625-16.632813 40.386719-37.625c.382812-.089844.769531-.164063 1.148437-.257813 6.828125 3.523438 28.683594 16.445313 41.703125 43.164063zm-43.785156-58.105469c-25.761719 6.425782-53.148438 6.398438-78.910156-.003906-54.863282-13.6875-98.140625-55.21875-112.371094-107.855469-5.09375-18.839843-6.265625-38.816406-3.539062-58.207031.027343-.207031.308593-2.914062.445312-2.933594 9.09375-1.382812 15.671875-6.550781 22.222656-12.628906 5.585938.710938 11.125 1.09375 16.511719 1.09375 40.441406 0 66.148437-19.65625 78.816406-32.792969 1.140625 4.652344 1.902344 9.152344 2.28125 13.46875 1.246094 14.164063 16.308594 23.761719 29.625 18.699219 19.679688-7.484375 36.195313-20.382812 46.75-30.085938-.15625 3.175782-.472656 6.386719-.953125 9.628907-2.027344 13.8125 9.703125 26.40625 23.644532 25.21875 31.835937-2.722657 46.824218-11.769531 53.828124-19.054688l19.253907 17.871094c4.765625 4.539063 11.148437 7.550781 17.667969 8.546875.0625.011719.125.027344.191406.039062.074218.460938.152344.921876.222656 1.386719 3.035156 19.871094 1.914062 40.339844-3.316406 59.75-14.230469 52.636719-57.507813 94.171875-112.371094 107.859375zm-54.867188-248.738281c18.796876-2.050781 37.996094-.3125 56.109376 5.125 15.058593 4.519531 30.785156 8.371094 43.671874 17.828125 4.011719 2.941406 7.886719 6.617188 11.632813 10.097656l10.75 9.976563c-4.429687 4.464843-15.910156 11.964843-44.050781 14.371093-4.5.386719-8.171875-3.683593-7.523438-8.09375 1.535156-10.445312 1.628906-20.679687.285156-30.421874-.871093-6.300782-9.070312-8.679688-13.171874-3.796876-.226563.269532-22.921876 27.003907-53.085938 38.472657-4.253906 1.617187-8.957031-1.511719-9.351562-5.992188-.839844-9.523437-3.234376-19.699219-7.125-30.25-2.097657-5.6875-10.128907-6.539062-13.371094-1.421875-.238282.371094-24.253906 37.308594-75.542969 37.308594-.503906 0-1.011719-.003906-1.519531-.011719 0 0 22.714844-21.078125 22.71875-21.085937 9.992187-9.273438 21.171875-17.046875 34.339844-20.996094 14.90625-4.472656 29.691406-9.410156 45.234374-11.109375zm217.363282 102.910156c0 18.746094-15.105469 34.03125-33.789063 34.320313 4.160157-19.050782 4.761719-38.949219 1.832031-58.222656-.019531-.148438-.039062-.300782-.0625-.449219 4.441407-1.398438 8.550782-3.714844 12.078126-6.835938 12.089843 5.539063 19.941406 17.570313 19.941406 31.1875zm-84.902344-209.757812c8.25 5.109375 14.746094 12.503906 18.785156 21.382812 17.925782 39.417969 23.628906 69.960938 25.363282 87.636719l-24.421876-22.667969c-3.917968-3.640625-8.050781-7.050781-12.355468-10.230469-.003906-.1875-.011719-.371093-.015625-.558593-.730469-26.035157-4.769531-51.933594-11.234375-77.144531-.074219-.285157-.148438-.578126-.21875-.859376 1.398437.804688 2.761718 1.617188 4.097656 2.441407zm-252.882812 21.382812c4.039062-8.878906 10.535156-16.273437 18.789062-21.382812 1.332031-.824219 2.699219-1.640625 4.097656-2.441407-.023437.085938-.042968.175782-.066406.261719-4.773438 18.558594-8.199219 37.496094-10.046875 56.574219-.691406 7.097656-1.136719 14.214844-1.34375 21.34375-.007813.125-.011719.253906-.015625.382812-4.300781 3.179688-8.433594 6.589844-12.355469 10.230469l-24.421875 22.667969c1.734375-17.675781 7.441406-48.222656 25.363282-87.636719zm-36.589844 118.523438s45.855468-42.558594 45.863281-42.566407c14.984375-12.859374 31.96875-23.46875 50.980469-29.171874 17.929687-5.378907 35.863281-10.96875 54.542968-13.019532.097657-.011718.195313-.019531.289063-.03125 13.851563-1.5 27.808594-1.496094 41.660156.019532.039063.003906.078125.007812.121094.011718 21.535156 2.382813 43.5625 8.382813 63.746094 16.246094 15.339843 5.972656 29.714843 14.746094 41.792969 25.953125 0 0 45.816406 42.523437 45.851562 42.558594 7.378906 6.851562 7.8125 18.765625.976562 26.132812-6.792968 7.316407-18.832031 7.75-26.132812.972657-15.285156-14.1875-30.574219-28.371094-45.855469-42.558594-15.644531-14.527344-36.40625-20.851563-56.402343-26.847656-29.199219-8.753907-60.820313-8.757813-90.015626 0-20.523437 6.15625-40.328124 11.921874-56.40625 26.847656 0 0-45.839843 42.542968-45.851562 42.558594-6.222656 5.777343-16.398438 6.523437-23.398438 1.445312-9.226562-6.691406-10.160156-20.757812-1.761718-28.550781zm-9.585938 38.664062c3.53125 3.125 7.636719 5.441407 12.082032 6.835938-.023438.148437-.042969.296875-.066407.449219-2.921875 19.222656-2.335937 39.140624 1.832031 58.222656-18.679687-.289063-33.789062-15.574219-33.789062-34.320313 0-13.617187 7.851562-25.648437 19.941406-31.1875zm0 0"/></svg>